<svg width="145" height="30" viewBox="0 0 145 30" fill="none" xmlns="http://www.w3.org/2000/svg">
<path fill-rule="evenodd" clip-rule="evenodd" d="M102.386 8.4998C102.18 8.20186 101.935 7.99746 100.912 7.92008C100.645 7.89988 99.7585 7.87101 98.2688 7.87101C94.353 7.87101 91.692 9.05123 90.329 11.3817C90.7045 9.03737 88.4109 7.85946 83.4238 7.85946C77.5765 7.85946 73.9263 10.198 72.472 14.875C71.9314 16.6147 71.8762 18.0392 72.3011 19.1525L70.9212 19.2448C69.843 19.3268 68.4242 19.399 67.5547 19.399C65.4157 19.399 64.0875 19.0427 63.5731 18.3296C63.1128 17.6945 63.1581 16.5004 63.6894 14.767C64.5822 11.8956 66.7932 10.6027 70.326 10.6027C72.157 10.5993 73.9414 10.7933 73.9414 10.7933V10.7921C74.1867 10.7771 74.2901 10.5231 74.268 10.3129L74.2332 10.0386L74.1076 9.07317C74.0251 8.43918 73.5496 8.0627 72.6812 7.94607C71.8878 7.89295 71.2967 7.85772 70.4278 7.85772H70.3801C65.7621 7.86812 62.5438 9.37458 60.7314 12.376C61.3999 9.36361 59.265 7.85715 54.3186 7.85715C51.5693 7.85715 49.5988 7.93394 48.4026 8.08927C47.486 8.20244 46.9274 8.58006 46.7252 9.21984L46.334 10.4601C46.2625 10.6876 46.3729 10.7996 46.6653 10.7996L46.674 10.7979C46.8914 10.7708 47.7278 10.6824 49.1571 10.575C51.0479 10.4249 52.4504 10.3441 53.3723 10.3441C56.0937 10.3441 57.2399 11.0214 56.8133 12.3742C56.7203 12.6745 56.5133 12.8593 56.196 12.9314C53.6211 13.3553 51.578 13.6607 50.0668 13.846C45.8132 14.383 43.3563 15.6938 42.6942 17.7955C41.7863 20.6826 44.0613 22.1186 49.5157 22.1186C52.236 22.1186 54.5144 21.9598 56.3663 21.6521C57.43 21.4748 57.9694 21.204 58.1827 20.5232L59.1969 17.3169C59.0912 20.5273 61.3574 22.1429 65.9998 22.1429C68.0098 22.1429 69.9151 22.077 70.8149 21.9217C71.7669 21.7577 72.2215 21.5522 72.4319 20.8391L72.6377 19.8269C73.6258 21.3582 75.7967 22.125 79.1464 22.125C82.6792 22.125 84.7398 22.0268 85.3274 21.8363C85.8197 21.6804 86.1237 21.428 86.2324 21.077C86.2533 21.0146 86.2644 20.9476 86.2754 20.8749L86.6985 19.511C86.7724 19.2801 86.6619 19.1611 86.3719 19.1646L84.105 19.2726C82.5955 19.3545 81.4139 19.3967 80.5606 19.3967C78.9546 19.3967 77.8537 19.2887 77.251 19.071C76.3576 18.7246 75.9327 18.049 75.9734 17.0253L83.1361 16.113C86.3463 15.7053 88.4952 14.7237 89.5879 13.1682L87.1641 21.5724C87.1176 21.7312 87.1368 21.8582 87.2176 21.9535C87.3083 22.0586 87.4629 22.1094 87.6919 22.1094H90.6562C91.1794 22.1094 91.3537 21.8438 91.4235 21.6209L94.0437 12.5573C94.3884 11.3643 95.4928 10.7846 97.4196 10.7846L101.314 10.8308C101.336 10.8323 101.357 10.8331 101.379 10.8331C101.543 10.8331 101.844 10.7736 101.985 10.3799L102.446 9.13553C102.533 8.89475 102.515 8.68169 102.392 8.50154L102.386 8.4998ZM54.6074 19.4042C53.6809 19.5486 52.3522 19.6202 50.6154 19.6202C47.6029 19.6202 46.2852 19.0162 46.6665 17.8071C46.9408 16.941 47.7301 16.4184 49.0414 16.2435L55.9001 15.3288L54.6074 19.4042ZM86.2841 12.0607C85.9958 12.9846 84.6549 13.6197 82.2642 13.9673L76.5547 14.7722L76.7 14.308C77.1725 12.7801 77.845 11.7385 78.7134 11.1853C79.5818 10.6322 80.9942 10.3556 82.9524 10.3556C85.5273 10.3556 86.6375 10.9255 86.2847 12.0601L86.2841 12.0607Z" fill="#78BC27"/>
</svg>
