<svg width="131" height="22" viewBox="0 0 131 22" fill="none" xmlns="http://www.w3.org/2000/svg">
<path d="M88.835 7.26642C88.835 6.69418 89.3003 6.22514 89.87 6.22514C90.1454 6.22514 90.4018 6.33771 90.6012 6.52533C90.8006 6.72233 90.905 6.98499 90.905 7.25704C90.905 7.52908 90.8006 7.79174 90.6012 7.98874C90.4018 8.18574 90.1454 8.29831 89.87 8.29831C89.3003 8.29831 88.835 7.83865 88.835 7.26642ZM88.7496 7.26642C88.7496 7.88555 89.2528 8.39212 89.8795 8.39212C90.1834 8.39212 90.4588 8.27955 90.6677 8.06379C90.8766 7.84803 91 7.5666 91 7.26642C91 6.96623 90.8861 6.6848 90.6677 6.46904C90.4493 6.25328 90.1739 6.14071 89.8795 6.14071C89.2528 6.14071 88.7496 6.64728 88.7496 7.26642ZM89.4522 7.93246H89.6137V7.40713H89.9745C90.0315 7.40713 90.0789 7.40713 90.1169 7.42589C90.1644 7.45403 90.1929 7.51032 90.2024 7.58537L90.2214 7.79174C90.2214 7.83865 90.2214 7.86679 90.2214 7.88555C90.2309 7.90432 90.2309 7.9137 90.2404 7.92308H90.4398V7.89493C90.4113 7.88555 90.4018 7.85741 90.3923 7.81989C90.3828 7.80113 90.3828 7.7636 90.3828 7.7167L90.3733 7.55722C90.3733 7.48218 90.3543 7.43527 90.3353 7.40713C90.3068 7.37899 90.2689 7.35084 90.2214 7.33208C90.2783 7.30394 90.3163 7.26642 90.3448 7.21951C90.3733 7.17261 90.3828 7.11632 90.3828 7.04128C90.3828 6.90056 90.3258 6.80675 90.2214 6.75047C90.1644 6.72233 90.0884 6.71295 90.003 6.71295H89.4617L89.4522 7.93246ZM89.6042 7.26642V6.84428H89.984C90.041 6.84428 90.0884 6.85366 90.1169 6.87242C90.1739 6.90056 90.2024 6.96623 90.2024 7.05066C90.2024 7.13508 90.1834 7.19137 90.1359 7.21951C90.0979 7.24765 90.041 7.26642 89.965 7.26642H89.6042V7.26642ZM44.6148 8.81426L40 15.9812H43.1525L47.5964 9.13321L44.6148 8.81426ZM63.6152 8.65478V6H54.642C53.4171 6.07505 52.8853 6.65666 52.4865 7.06942C52.0592 7.51032 51.8218 8.43902 51.8218 8.43902V6.01876H47.0456C46.6848 6.01876 46.343 6.16886 46.0866 6.52533C45.8207 6.87242 44.7287 8.65478 44.7287 8.65478H63.6152ZM88.0184 8.65478V6H78.4185C77.2031 6.07505 76.6619 6.65666 76.2631 7.06942C75.8358 7.51032 75.5984 8.43902 75.5984 8.43902V8.65478H88.0184ZM66.7676 6.00938H64.0804V8.65478H66.7676V6.00938ZM75.5699 6.00938H72.8922V8.65478H75.5699V6.00938ZM75.5699 9.61163L72.9302 9.45216V12.5197C72.9302 12.5197 72.9207 13.4015 72.0566 13.4015H67.5368C67.5368 13.4015 66.7676 13.3358 66.7676 12.5291V9.0394L64.1089 8.85178V13.5516C64.5362 15.803 66.5967 15.9812 66.5967 15.9812C66.5967 15.9812 66.8056 15.9906 66.8436 16H72.9682C72.9682 16 75.5889 15.7936 75.5889 13.2983L75.5699 9.61163ZM49.0871 15.9812H61.6401C63.8241 15.5497 64.0519 13.5797 64.0519 13.5797C64.1564 12.9981 64.0994 12.5197 64.0994 12.5197C64.033 12.1257 63.2733 10.3809 61.6401 10.2308C60.6621 10.137 51.9548 9.45216 51.9548 9.45216C52.1257 10.3152 52.515 10.7561 52.7809 11C53.3886 11.5722 54.3476 11.7411 54.3476 11.7411C54.5755 11.7598 61.0609 12.2946 61.0609 12.2946C61.2698 12.3039 61.6591 12.3602 61.6496 12.8668C61.6496 12.9325 61.5926 13.3734 61.0989 13.3734H51.7079V9.4334L49.0966 9.24578C49.0871 9.24578 49.0871 15.9812 49.0871 15.9812ZM75.5889 16H85.1983C87.6101 15.8593 87.952 13.5985 87.952 13.5985C88.0374 13.0075 87.971 12.5197 87.971 12.5197C87.9045 11.985 87.1354 10.3715 85.4926 10.212C84.5241 10.1182 75.7598 9.61163 75.7598 9.61163C76.0162 10.5028 76.3675 10.7749 76.6334 11.0188C77.2411 11.6004 78.1432 11.7317 78.1432 11.7317C78.3711 11.7505 84.9229 12.2946 84.9229 12.2946C85.1318 12.3039 85.5591 12.3227 85.5591 12.8293C85.5591 12.9794 85.4832 13.1388 85.3882 13.2233C85.3882 13.2233 85.1603 13.3452 84.9419 13.3452H75.6174L75.5889 16Z" fill="#00539B"/>
</svg>
