<svg width="131" height="22" viewBox="0 0 131 22" fill="none" xmlns="http://www.w3.org/2000/svg">
<path d="M60.6475 7.07392C59.5641 7.07392 58.332 7.56052 57.5792 8.53488L57.5796 8.53289L57.5792 8.53336L57.5796 7.22696H54.9956V16.345H57.5792V11.1566C57.5792 10.2229 58.3264 9.23031 59.7098 9.23031C60.7789 9.23031 61.8853 9.95086 61.8853 11.1566V16.345H64.4693V10.6927C64.4693 8.5956 62.9209 7.07392 60.6475 7.07392ZM82.8345 7.22731L80.4986 13.4383L78.1625 7.22731H75.2108L79.0825 16.3424H81.9141L85.7858 7.22731H82.8345ZM47.2815 9.97412C47.7215 9.40155 48.4224 9.06552 49.269 9.06552C50.2001 9.06552 50.9065 9.58078 51.2719 10.3413L46.7573 12.1561C46.6341 11.2247 46.88 10.4963 47.2815 9.97412M52.2457 13.5415C51.1582 14.3214 50.5368 14.5075 49.5451 14.5075C48.6526 14.5075 47.9538 14.239 47.4612 13.7681L54.0673 11.1128C53.923 10.1232 53.5354 9.23923 52.939 8.56695C52.071 7.59023 50.7863 7.07345 49.2222 7.07345C46.381 7.07345 44.2384 9.10452 44.2384 11.787C44.2384 14.5391 46.3859 16.5 49.5069 16.5C51.2555 16.5 53.0434 15.697 53.8798 14.7587L52.2457 13.5415ZM43.9921 14.0459H38.1193V4.5H35.5V16.3448H43.9921V14.0459ZM90.4257 9.21903C88.9827 9.21903 87.9348 10.2787 87.9348 11.786C87.9348 13.2253 89.0447 14.353 90.4604 14.353C91.9039 14.353 92.9512 13.2642 92.9512 11.786C92.9512 10.3468 91.8417 9.21903 90.4257 9.21903M90.4257 16.4986C87.5998 16.4986 85.3855 14.4586 85.3855 11.786C85.3855 9.14351 87.615 7.07357 90.4604 7.07357C93.2863 7.07357 95.5 9.11344 95.5 11.786C95.5 14.4281 93.2709 16.4985 90.4257 16.4985M70.5313 9.21903C69.0882 9.21903 68.041 10.2787 68.041 11.786C68.041 13.2253 69.1504 14.353 70.5664 14.353C72.0095 14.353 73.0567 13.2642 73.0567 11.786C73.0567 10.3468 71.9473 9.21903 70.5313 9.21903ZM70.5313 16.4986C67.7053 16.4986 65.4916 14.4586 65.4916 11.786C65.4916 9.14351 67.7206 7.07357 70.5664 7.07357C73.3919 7.07357 75.6061 9.11344 75.6061 11.786C75.6061 14.4281 73.3766 16.4985 70.5313 16.4985" fill="#E60012"/>
</svg>
