<svg width="131" height="22" viewBox="0 0 131 22" fill="none" xmlns="http://www.w3.org/2000/svg">
<path d="M36.5818 13.0822C36.6754 13.3172 36.6457 13.6184 36.6001 13.801C36.5202 14.125 36.3012 14.4559 35.6531 14.4559C35.0462 14.4559 34.6765 14.1045 34.6765 13.5751V12.6327H32.0684V13.3811C32.0684 15.5489 33.7729 16.2037 35.6007 16.2037C37.3577 16.2037 38.8044 15.6059 39.0348 13.9835C39.1535 13.1438 39.0668 12.5939 39.0257 12.3908C38.615 10.3554 34.9275 9.74841 34.6514 8.60978C34.6131 8.44186 34.61 8.26782 34.6423 8.09864C34.7107 7.78603 34.9229 7.44604 35.5299 7.44604C36.1004 7.44604 36.4312 7.79744 36.4312 8.32683V8.92923H38.8568V8.24468C38.8568 6.12713 36.9561 5.79626 35.5824 5.79626C33.8528 5.79626 32.4403 6.36901 32.1825 7.95489C32.114 8.38844 32.1026 8.77635 32.2053 9.26466C32.6274 11.2499 36.0798 11.8249 36.5818 13.0822" fill="#034EA2"/>
<path d="M42.8984 5.79855L41.0957 15.5169H43.7221L45.0524 6.69759H45.1072L46.401 15.5169H49.0137L47.2224 5.79626L42.8984 5.79855ZM57.582 5.79855L56.384 13.2282H56.327L55.1313 5.79855H51.1678L50.9533 15.5169H53.3857L53.445 6.77974H53.4998L55.1222 15.5169H57.5889L59.2135 6.78202H59.266L59.3276 15.5169H61.7578L61.5433 5.79626L57.582 5.79855Z" fill="#034EA2"/>
<path d="M68.2713 13.0822C68.3649 13.3172 68.3352 13.6184 68.2896 13.801C68.2097 14.125 67.9906 14.4559 67.3426 14.4559C66.7356 14.4559 66.366 14.1045 66.366 13.5751V12.6327H63.7578V13.3811C63.7578 15.5489 65.4623 16.2037 67.2901 16.2037C69.0471 16.2037 70.4938 15.6059 70.7243 13.9835C70.8429 13.1438 70.7562 12.5939 70.7151 12.3908C70.3044 10.3554 66.617 9.74841 66.3409 8.60978C66.3025 8.44186 66.2994 8.26782 66.3317 8.09864C66.4002 7.78603 66.6124 7.44604 67.2194 7.44604C67.7898 7.44604 68.1207 7.79744 68.1207 8.32683V8.92923H70.5463V8.24468C70.5463 6.12713 68.6455 5.79626 67.2718 5.79626C65.5422 5.79626 64.1298 6.36901 63.8719 7.95489C63.8034 8.38844 63.792 8.77635 63.8947 9.26466C64.3169 11.2499 67.7693 11.8249 68.2713 13.0822" fill="#034EA2"/>
<path d="M76.1993 14.3235C76.8747 14.3235 77.0824 13.858 77.1303 13.6207C77.1508 13.5157 77.1531 13.3743 77.1531 13.2488V6.06096H79.613V13.0274C79.6134 13.2406 79.6058 13.4537 79.5901 13.6663C79.419 15.4804 77.986 16.0691 76.1993 16.0691C74.4104 16.0691 72.9774 15.4804 72.8062 13.6663C72.7994 13.5705 72.7811 13.2054 72.7834 13.0274V6.05868H75.2432V13.2465C75.2409 13.3743 75.2455 13.5157 75.266 13.6207C75.3117 13.858 75.5216 14.3235 76.1993 14.3235ZM88.0832 6.06096L88.2155 13.6892H88.163L85.9268 6.06096H82.3215V15.6766H84.7106L84.5782 7.78375H84.6307L87.0289 15.6766H90.4905V6.06096H88.0832ZM96.4689 14.2231C97.1717 14.2231 97.4182 13.7781 97.4615 13.5157C97.4821 13.4085 97.4843 13.2716 97.4843 13.1506V11.7359H96.4872V10.3212H99.9305V12.927C99.9305 13.1096 99.9259 13.2419 99.8962 13.5659C99.7365 15.3366 98.2008 15.9687 96.478 15.9687C94.7553 15.9687 93.2219 15.3366 93.0599 13.5659C93.0325 13.2419 93.0256 13.1096 93.0256 12.927V8.83796C93.0256 8.66454 93.0484 8.35877 93.0667 8.19904C93.2835 6.38042 94.7553 5.79626 96.478 5.79626C98.2008 5.79626 99.7114 6.37585 99.8894 8.19676C99.9213 8.50709 99.9122 8.83568 99.9122 8.83568V9.16198H97.4615V8.61662C97.4615 8.61662 97.4615 8.38844 97.4319 8.24696C97.3862 8.03247 97.2037 7.53959 96.4598 7.53959C95.7524 7.53959 95.5448 8.00737 95.4923 8.24696C95.4626 8.37475 95.4512 8.54817 95.4512 8.70561V13.1484C95.4512 13.2716 95.4558 13.4085 95.474 13.518C95.5197 13.7781 95.7661 14.2231 96.4689 14.2231" fill="#034EA2"/>
</svg>
