<svg width="131" height="22" viewBox="0 0 131 22" fill="none" xmlns="http://www.w3.org/2000/svg">
<path fill-rule="evenodd" clip-rule="evenodd" d="M95.5572 14.6592C95.5572 14.5729 95.519 14.4821 95.4427 14.4388C95.3657 14.3933 95.2798 14.3888 95.1935 14.3888H94.748V15.4109H94.8728V14.9395H95.1027L95.3946 15.4109H95.5431L95.2342 14.9395C95.4164 14.9343 95.5572 14.8603 95.5572 14.6592ZM95.0643 14.841H94.8725V14.4796H95.1643C95.2913 14.4796 95.4305 14.4988 95.4305 14.6569C95.4308 14.8651 95.2076 14.841 95.0643 14.841ZM89.7273 9.7177L91.5971 7.72129C91.7055 7.57472 91.7594 7.4721 91.7594 7.38422C91.7594 7.23766 91.6333 7.17897 91.2369 7.17897H90.7652V5.91859H95.8715V7.17897H95.2006C94.4257 7.17897 94.2817 7.29603 93.2006 8.65904L90.2427 11.8533V13.8026C90.2427 14.3013 90.4945 14.4767 91.2154 14.4767H92.3321V15.6928H85.18V14.4767H86.2967C87.017 14.4767 87.2694 14.3013 87.2694 13.8026V11.8533L83.7856 7.99934C83.2099 7.32553 83.2894 7.17897 81.6865 7.17897V5.91859H88.1546V7.17897H87.6941C87.2255 7.17897 87.027 7.26684 87.027 7.44259C87.027 7.58948 87.171 7.70653 87.2611 7.82359L89.0237 9.74464C89.2331 9.9624 89.4887 9.99062 89.7273 9.7177ZM46.33 5.91827H47.8903V9.43515H46.4493C46.3217 8.73216 45.8817 8.4586 45.4805 8.08978C44.7566 7.42463 43.189 6.87077 41.8706 6.87077C40.1689 6.87077 38.7328 7.39865 38.7328 8.17477C38.7328 10.3293 48.4647 8.61478 48.4647 12.6884C48.4647 14.8131 46.3801 16.0001 42.6364 16.0001C41.3404 16.0001 39.3793 15.5979 38.2222 14.9834C37.8595 14.774 37.7055 15.1816 37.6375 15.6925H36.0378V12.0582H37.4849C37.804 12.9815 38.2437 13.1717 38.6481 13.5383C39.3498 14.1832 41.0201 14.6524 42.5518 14.6374C44.8612 14.6146 45.6553 14.1098 45.6553 13.377C45.6553 12.6445 44.8698 12.4684 42.3391 12.073L40.1904 11.7212C37.7655 11.3546 36 10.8126 36 8.8784C36 6.87077 38.2334 5.61038 41.7647 5.61038C43.2528 5.61038 44.4978 5.80922 45.6928 6.48464C46.0237 6.69983 46.3342 6.72549 46.33 5.91827ZM76.7794 11.8065L76.8102 7.89768C76.8102 7.38486 76.5433 7.20911 75.781 7.20911H74.8853V5.99299H80.5843V7.20911H79.8415C79.0785 7.20911 78.8117 7.38518 78.8117 7.89768V15.7669L76.5812 15.7493L69.3575 8.90887V13.8766C69.3575 14.375 69.6244 14.5652 70.3867 14.5652H71.3783V15.7669H65.4597V14.5652H66.4404C67.2027 14.5652 67.4695 14.3747 67.4695 13.8766V7.89768C67.4695 7.38486 67.2027 7.20911 66.4404 7.20911H65.4597V5.99299H70.5769L76.7794 11.8065ZM57.6898 5.53662C53.148 5.53662 50.3049 7.54458 50.3049 10.768C50.3049 13.9337 53.1085 15.9263 57.5513 15.9263C62.2702 15.9263 65.0151 13.9629 65.0151 10.607C65.0155 7.58851 62.0534 5.53662 57.6898 5.53662ZM57.5866 14.6518C55.0725 14.6518 53.6274 13.2009 53.6274 10.6949C53.6274 8.24789 55.1354 6.79701 57.7123 6.79701C60.1843 6.79701 61.6294 8.2774 61.6294 10.7978C61.6294 13.2596 60.1631 14.6518 57.5866 14.6518Z" fill="#001F3A"/>
<path fill-rule="evenodd" clip-rule="evenodd" d="M95.1193 14.0002C94.9978 13.9979 94.877 14.0199 94.764 14.0648C94.6511 14.1097 94.5482 14.1767 94.4615 14.2619C94.3747 14.347 94.3058 14.4486 94.2588 14.5607C94.2117 14.6728 94.1875 14.7931 94.1875 14.9147C94.1875 15.0362 94.2117 15.1566 94.2588 15.2686C94.3058 15.3807 94.3747 15.4823 94.4615 15.5675C94.5482 15.6526 94.6511 15.7196 94.764 15.7645C94.877 15.8095 94.9978 15.8314 95.1193 15.8292C95.2394 15.829 95.3583 15.8052 95.4692 15.759C95.5801 15.7129 95.6808 15.6453 95.7655 15.5601C95.8503 15.475 95.9174 15.374 95.963 15.2629C96.0086 15.1517 96.0318 15.0327 96.0314 14.9126C96.0314 14.7928 96.0079 14.6741 95.962 14.5634C95.9162 14.4527 95.8491 14.3522 95.7644 14.2674C95.6797 14.1827 95.5791 14.1155 95.4684 14.0696C95.3577 14.0238 95.2391 14.0002 95.1193 14.0002ZM95.1193 15.7192C95.0134 15.7193 94.9086 15.6985 94.8108 15.658C94.713 15.6175 94.6242 15.558 94.5495 15.4831C94.4747 15.4081 94.4155 15.3191 94.3753 15.2212C94.335 15.1233 94.3145 15.0184 94.3149 14.9126C94.315 14.8071 94.3358 14.7026 94.3763 14.6052C94.4168 14.5077 94.4761 14.4192 94.5508 14.3447C94.6255 14.2702 94.7141 14.2112 94.8117 14.171C94.9093 14.1308 95.0138 14.1102 95.1193 14.1105C95.2246 14.1105 95.3289 14.1312 95.4262 14.1715C95.5235 14.2119 95.6119 14.2709 95.6863 14.3454C95.7608 14.4199 95.8198 14.5083 95.8601 14.6057C95.9004 14.703 95.9211 14.8073 95.9211 14.9126C95.9216 15.0182 95.9012 15.123 95.8612 15.2207C95.8211 15.3185 95.7621 15.4074 95.6877 15.4823C95.6132 15.5573 95.5246 15.6168 95.4271 15.6574C95.3295 15.698 95.2249 15.719 95.1193 15.7192Z" fill="black"/>
</svg>
